<svg xmlns="http://www.w3.org/2000/svg" width="800" height="600" viewBox="0 0 800 600">
  <defs>
    <style>
      .contour { fill: none; stroke: #ffffff; stroke-width: 1; }
    </style>
  </defs>
  <g class="contour">
    <!-- Large-scale topographic contour lines -->
    <!-- Outer contours -->
    <path d="M-50,150 Q100,80 250,120 T450,100 T650,140 T850,90"/>
    <path d="M-50,200 Q80,140 200,180 T400,150 T600,190 T850,150"/>
    <path d="M-50,260 Q120,200 280,240 T480,210 T680,250 T850,200"/>
    
    <!-- Central depression -->
    <ellipse cx="400" cy="300" rx="280" ry="120"/>
    <ellipse cx="400" cy="300" rx="220" ry="90"/>
    <ellipse cx="400" cy="300" rx="160" ry="60"/>
    <ellipse cx="400" cy="300" rx="100" ry="35"/>
    <ellipse cx="400" cy="300" rx="50" ry="15"/>
    
    <!-- Ridge lines on left -->
    <path d="M-50,350 Q50,320 150,360 Q250,400 350,380"/>
    <path d="M-50,400 Q80,370 180,410 Q280,450 380,420"/>
    <path d="M-50,450 Q100,420 200,460 Q300,500 400,460"/>
    
    <!-- Ridge lines on right -->
    <path d="M450,380 Q550,400 650,360 Q750,320 850,350"/>
    <path d="M420,420 Q520,450 620,410 Q720,370 850,400"/>
    <path d="M400,460 Q500,500 600,460 Q700,420 850,450"/>
    
    <!-- Lower contours -->
    <path d="M-50,500 Q150,460 300,500 T500,470 T700,510 T850,480"/>
    <path d="M-50,550 Q100,520 250,560 T450,530 T650,570 T850,540"/>
    <path d="M-50,600 Q130,570 280,610 T480,580 T680,620 T850,590"/>
    
    <!-- Upper detail contours -->
    <path d="M-50,50 Q150,20 300,60 T500,30 T700,70 T850,40"/>
    <path d="M-50,100 Q100,70 250,100 T450,70 T650,110 T850,80"/>
    
    <!-- Additional organic curves -->
    <path d="M100,250 Q200,220 280,260 Q360,300 320,350"/>
    <path d="M500,250 Q580,220 660,260 Q740,300 700,350"/>
    
    <!-- Small hills left side -->
    <ellipse cx="120" cy="420" rx="60" ry="30"/>
    <ellipse cx="120" cy="420" rx="35" ry="18"/>
    
    <!-- Small hills right side -->
    <ellipse cx="680" cy="420" rx="70" ry="35"/>
    <ellipse cx="680" cy="420" rx="40" ry="20"/>
    
    <!-- Flowing lines -->
    <path d="M-50,320 C50,280 150,340 250,300 S350,340 450,300 S550,340 650,300 S750,340 850,300"/>
    <path d="M-50,380 C50,340 150,400 250,360 S350,400 450,360 S550,400 650,360 S750,400 850,360"/>
  </g>
</svg>